<?xml version="1.0" encoding="UTF-8" standalone="no"?>
<!DOCTYPE svg PUBLIC "-//W3C//DTD SVG 1.1//EN"
 "http://www.w3.org/Graphics/SVG/1.1/DTD/svg11.dtd">
<!-- Generated by graphviz version 2.40.1 (20161225.0304)
 -->
<!-- Title: G Pages: 1 -->
<svg width="1306pt" height="4232pt"
 viewBox="0.00 0.00 1305.83 4232.00" xmlns="http://www.w3.org/2000/svg" xmlns:xlink="http://www.w3.org/1999/xlink">
<g id="graph0" class="graph" transform="scale(1 1) rotate(0) translate(4 4228)">
<title>G</title>
<polygon fill="#ffffff" stroke="transparent" points="-4,4 -4,-4228 1301.8305,-4228 1301.8305,4 -4,4"/>
<g id="clust1" class="cluster">
<title>cluster_Global</title>
<path fill="none" stroke="#c0c0c0" d="M400.5698,-406C400.5698,-406 1277.8305,-406 1277.8305,-406 1283.8305,-406 1289.8305,-412 1289.8305,-418 1289.8305,-418 1289.8305,-4204 1289.8305,-4204 1289.8305,-4210 1283.8305,-4216 1277.8305,-4216 1277.8305,-4216 400.5698,-4216 400.5698,-4216 394.5698,-4216 388.5698,-4210 388.5698,-4204 388.5698,-4204 388.5698,-418 388.5698,-418 388.5698,-412 394.5698,-406 400.5698,-406"/>
<text text-anchor="middle" x="839.2001" y="-4203.2" font-family="Times,serif" font-size="11.00" fill="#c0c0c0">Global</text>
</g>
<g id="clust2" class="cluster">
<title>cluster_\Anax</title>
<path fill="none" stroke="#c0c0c0" d="M408.5698,-414C408.5698,-414 1269.8305,-414 1269.8305,-414 1275.8305,-414 1281.8305,-420 1281.8305,-426 1281.8305,-426 1281.8305,-3578 1281.8305,-3578 1281.8305,-3584 1275.8305,-3590 1269.8305,-3590 1269.8305,-3590 408.5698,-3590 408.5698,-3590 402.5698,-3590 396.5698,-3584 396.5698,-3578 396.5698,-3578 396.5698,-426 396.5698,-426 396.5698,-420 402.5698,-414 408.5698,-414"/>
<text text-anchor="middle" x="839.2001" y="-3577.2" font-family="Times,serif" font-size="11.00" fill="#c0c0c0">Anax</text>
</g>
<g id="clust3" class="cluster">
<title>cluster_\Anax\Configure</title>
<path fill="none" stroke="#c0c0c0" d="M695.2001,-1887C695.2001,-1887 825.2001,-1887 825.2001,-1887 831.2001,-1887 837.2001,-1893 837.2001,-1899 837.2001,-1899 837.2001,-2163 837.2001,-2163 837.2001,-2169 831.2001,-2175 825.2001,-2175 825.2001,-2175 695.2001,-2175 695.2001,-2175 689.2001,-2175 683.2001,-2169 683.2001,-2163 683.2001,-2163 683.2001,-1899 683.2001,-1899 683.2001,-1893 689.2001,-1887 695.2001,-1887"/>
<text text-anchor="middle" x="760.2001" y="-2162.2" font-family="Times,serif" font-size="11.00" fill="#c0c0c0">Configure</text>
</g>
<g id="clust4" class="cluster">
<title>cluster_\Anax\Response</title>
<path fill="none" stroke="#c0c0c0" d="M728.7001,-3436C728.7001,-3436 1214.8305,-3436 1214.8305,-3436 1220.8305,-3436 1226.8305,-3442 1226.8305,-3448 1226.8305,-3448 1226.8305,-3550 1226.8305,-3550 1226.8305,-3556 1220.8305,-3562 1214.8305,-3562 1214.8305,-3562 728.7001,-3562 728.7001,-3562 722.7001,-3562 716.7001,-3556 716.7001,-3550 716.7001,-3550 716.7001,-3448 716.7001,-3448 716.7001,-3442 722.7001,-3436 728.7001,-3436"/>
<text text-anchor="middle" x="971.7653" y="-3549.2" font-family="Times,serif" font-size="11.00" fill="#c0c0c0">Response</text>
</g>
<g id="clust5" class="cluster">
<title>cluster_\Anax\Controller</title>
<path fill="none" stroke="#c0c0c0" d="M1071.3305,-2384C1071.3305,-2384 1248.3305,-2384 1248.3305,-2384 1254.3305,-2384 1260.3305,-2390 1260.3305,-2396 1260.3305,-2396 1260.3305,-2714 1260.3305,-2714 1260.3305,-2720 1254.3305,-2726 1248.3305,-2726 1248.3305,-2726 1071.3305,-2726 1071.3305,-2726 1065.3305,-2726 1059.3305,-2720 1059.3305,-2714 1059.3305,-2714 1059.3305,-2396 1059.3305,-2396 1059.3305,-2390 1065.3305,-2384 1071.3305,-2384"/>
<text text-anchor="middle" x="1159.8305" y="-2713.2" font-family="Times,serif" font-size="11.00" fill="#c0c0c0">Controller</text>
</g>
<g id="clust6" class="cluster">
<title>cluster_\Anax\TextFilter</title>
<path fill="none" stroke="#c0c0c0" d="M697.2001,-3004C697.2001,-3004 1211.3305,-3004 1211.3305,-3004 1217.3305,-3004 1223.3305,-3010 1223.3305,-3016 1223.3305,-3016 1223.3305,-3416 1223.3305,-3416 1223.3305,-3422 1217.3305,-3428 1211.3305,-3428 1211.3305,-3428 697.2001,-3428 697.2001,-3428 691.2001,-3428 685.2001,-3422 685.2001,-3416 685.2001,-3416 685.2001,-3016 685.2001,-3016 685.2001,-3010 691.2001,-3004 697.2001,-3004"/>
<text text-anchor="middle" x="954.2653" y="-3415.2" font-family="Times,serif" font-size="11.00" fill="#c0c0c0">TextFilter</text>
</g>
<g id="clust7" class="cluster">
<title>cluster_\Anax\TextFilter\Filter</title>
<path fill="none" stroke="#c0c0c0" d="M705.2001,-3220C705.2001,-3220 1201.3305,-3220 1201.3305,-3220 1207.3305,-3220 1213.3305,-3226 1213.3305,-3232 1213.3305,-3232 1213.3305,-3388 1213.3305,-3388 1213.3305,-3394 1207.3305,-3400 1201.3305,-3400 1201.3305,-3400 705.2001,-3400 705.2001,-3400 699.2001,-3400 693.2001,-3394 693.2001,-3388 693.2001,-3388 693.2001,-3232 693.2001,-3232 693.2001,-3226 699.2001,-3220 705.2001,-3220"/>
<text text-anchor="middle" x="953.2653" y="-3387.2" font-family="Times,serif" font-size="11.00" fill="#c0c0c0">Filter</text>
</g>
<g id="clust8" class="cluster">
<title>cluster_\Anax\DI</title>
<path fill="none" stroke="#c0c0c0" d="M416.5698,-2734C416.5698,-2734 1229.3305,-2734 1229.3305,-2734 1235.3305,-2734 1241.3305,-2740 1241.3305,-2746 1241.3305,-2746 1241.3305,-2984 1241.3305,-2984 1241.3305,-2990 1235.3305,-2996 1229.3305,-2996 1229.3305,-2996 416.5698,-2996 416.5698,-2996 410.5698,-2996 404.5698,-2990 404.5698,-2984 404.5698,-2984 404.5698,-2746 404.5698,-2746 404.5698,-2740 410.5698,-2734 416.5698,-2734"/>
<text text-anchor="middle" x="822.9501" y="-2983.2" font-family="Times,serif" font-size="11.00" fill="#c0c0c0">DI</text>
</g>
<g id="clust9" class="cluster">
<title>cluster_\Anax\DI\Exception</title>
<path fill="none" stroke="#c0c0c0" d="M1098.3305,-2842C1098.3305,-2842 1221.3305,-2842 1221.3305,-2842 1227.3305,-2842 1233.3305,-2848 1233.3305,-2854 1233.3305,-2854 1233.3305,-2956 1233.3305,-2956 1233.3305,-2962 1227.3305,-2968 1221.3305,-2968 1221.3305,-2968 1098.3305,-2968 1098.3305,-2968 1092.3305,-2968 1086.3305,-2962 1086.3305,-2956 1086.3305,-2956 1086.3305,-2854 1086.3305,-2854 1086.3305,-2848 1092.3305,-2842 1098.3305,-2842"/>
<text text-anchor="middle" x="1159.8305" y="-2955.2" font-family="Times,serif" font-size="11.00" fill="#c0c0c0">Exception</text>
</g>
<g id="clust10" class="cluster">
<title>cluster_\Anax\Request</title>
<path fill="none" stroke="#c0c0c0" d="M1125.3305,-2116C1125.3305,-2116 1194.3305,-2116 1194.3305,-2116 1200.3305,-2116 1206.3305,-2122 1206.3305,-2128 1206.3305,-2128 1206.3305,-2230 1206.3305,-2230 1206.3305,-2236 1200.3305,-2242 1194.3305,-2242 1194.3305,-2242 1125.3305,-2242 1125.3305,-2242 1119.3305,-2242 1113.3305,-2236 1113.3305,-2230 1113.3305,-2230 1113.3305,-2128 1113.3305,-2128 1113.3305,-2122 1119.3305,-2116 1125.3305,-2116"/>
<text text-anchor="middle" x="1159.8305" y="-2229.2" font-family="Times,serif" font-size="11.00" fill="#c0c0c0">Request</text>
</g>
<g id="clust11" class="cluster">
<title>cluster_\Anax\Url</title>
<path fill="none" stroke="#c0c0c0" d="M1125.3305,-2250C1125.3305,-2250 1194.3305,-2250 1194.3305,-2250 1200.3305,-2250 1206.3305,-2256 1206.3305,-2262 1206.3305,-2262 1206.3305,-2364 1206.3305,-2364 1206.3305,-2370 1200.3305,-2376 1194.3305,-2376 1194.3305,-2376 1125.3305,-2376 1125.3305,-2376 1119.3305,-2376 1113.3305,-2370 1113.3305,-2364 1113.3305,-2364 1113.3305,-2262 1113.3305,-2262 1113.3305,-2256 1119.3305,-2250 1125.3305,-2250"/>
<text text-anchor="middle" x="1159.8305" y="-2363.2" font-family="Times,serif" font-size="11.00" fill="#c0c0c0">Url</text>
</g>
<g id="clust12" class="cluster">
<title>cluster_\Anax\Session</title>
<path fill="none" stroke="#c0c0c0" d="M1101.3305,-2036C1101.3305,-2036 1218.3305,-2036 1218.3305,-2036 1224.3305,-2036 1230.3305,-2042 1230.3305,-2048 1230.3305,-2048 1230.3305,-2096 1230.3305,-2096 1230.3305,-2102 1224.3305,-2108 1218.3305,-2108 1218.3305,-2108 1101.3305,-2108 1101.3305,-2108 1095.3305,-2108 1089.3305,-2102 1089.3305,-2096 1089.3305,-2096 1089.3305,-2048 1089.3305,-2048 1089.3305,-2042 1095.3305,-2036 1101.3305,-2036"/>
<text text-anchor="middle" x="1159.8305" y="-2095.2" font-family="Times,serif" font-size="11.00" fill="#c0c0c0">Session</text>
</g>
<g id="clust13" class="cluster">
<title>cluster_\Anax\Commons</title>
<path fill="none" stroke="#c0c0c0" d="M661.2001,-2384C661.2001,-2384 859.2001,-2384 859.2001,-2384 865.2001,-2384 871.2001,-2390 871.2001,-2396 871.2001,-2396 871.2001,-2606 871.2001,-2606 871.2001,-2612 865.2001,-2618 859.2001,-2618 859.2001,-2618 661.2001,-2618 661.2001,-2618 655.2001,-2618 649.2001,-2612 649.2001,-2606 649.2001,-2606 649.2001,-2396 649.2001,-2396 649.2001,-2390 655.2001,-2384 661.2001,-2384"/>
<text text-anchor="middle" x="760.2001" y="-2605.2" font-family="Times,serif" font-size="11.00" fill="#c0c0c0">Commons</text>
</g>
<g id="clust14" class="cluster">
<title>cluster_\Anax\Route</title>
<path fill="none" stroke="#c0c0c0" d="M1073.3305,-1012C1073.3305,-1012 1246.3305,-1012 1246.3305,-1012 1252.3305,-1012 1258.3305,-1018 1258.3305,-1024 1258.3305,-1024 1258.3305,-1424 1258.3305,-1424 1258.3305,-1430 1252.3305,-1436 1246.3305,-1436 1246.3305,-1436 1073.3305,-1436 1073.3305,-1436 1067.3305,-1436 1061.3305,-1430 1061.3305,-1424 1061.3305,-1424 1061.3305,-1024 1061.3305,-1024 1061.3305,-1018 1067.3305,-1012 1073.3305,-1012"/>
<text text-anchor="middle" x="1159.8305" y="-1423.2" font-family="Times,serif" font-size="11.00" fill="#c0c0c0">Route</text>
</g>
<g id="clust15" class="cluster">
<title>cluster_\Anax\Route\Exception</title>
<path fill="none" stroke="#c0c0c0" d="M1081.3305,-1174C1081.3305,-1174 1238.3305,-1174 1238.3305,-1174 1244.3305,-1174 1250.3305,-1180 1250.3305,-1186 1250.3305,-1186 1250.3305,-1396 1250.3305,-1396 1250.3305,-1402 1244.3305,-1408 1238.3305,-1408 1238.3305,-1408 1081.3305,-1408 1081.3305,-1408 1075.3305,-1408 1069.3305,-1402 1069.3305,-1396 1069.3305,-1396 1069.3305,-1186 1069.3305,-1186 1069.3305,-1180 1075.3305,-1174 1081.3305,-1174"/>
<text text-anchor="middle" x="1159.8305" y="-1395.2" font-family="Times,serif" font-size="11.00" fill="#c0c0c0">Exception</text>
</g>
<g id="clust16" class="cluster">
<title>cluster_\Anax\Content</title>
<path fill="none" stroke="#c0c0c0" d="M1057.8305,-1686C1057.8305,-1686 1261.8305,-1686 1261.8305,-1686 1267.8305,-1686 1273.8305,-1692 1273.8305,-1698 1273.8305,-1698 1273.8305,-2016 1273.8305,-2016 1273.8305,-2022 1267.8305,-2028 1261.8305,-2028 1261.8305,-2028 1057.8305,-2028 1057.8305,-2028 1051.8305,-2028 1045.8305,-2022 1045.8305,-2016 1045.8305,-2016 1045.8305,-1698 1045.8305,-1698 1045.8305,-1692 1051.8305,-1686 1057.8305,-1686"/>
<text text-anchor="middle" x="1159.8305" y="-2015.2" font-family="Times,serif" font-size="11.00" fill="#c0c0c0">Content</text>
</g>
<g id="clust17" class="cluster">
<title>cluster_\Anax\View</title>
<path fill="none" stroke="#c0c0c0" d="M678.2001,-1444C678.2001,-1444 1211.3305,-1444 1211.3305,-1444 1217.3305,-1444 1223.3305,-1450 1223.3305,-1456 1223.3305,-1456 1223.3305,-1666 1223.3305,-1666 1223.3305,-1672 1217.3305,-1678 1211.3305,-1678 1211.3305,-1678 678.2001,-1678 678.2001,-1678 672.2001,-1678 666.2001,-1672 666.2001,-1666 666.2001,-1666 666.2001,-1456 666.2001,-1456 666.2001,-1450 672.2001,-1444 678.2001,-1444"/>
<text text-anchor="middle" x="944.7653" y="-1665.2" font-family="Times,serif" font-size="11.00" fill="#c0c0c0">View</text>
</g>
<g id="clust18" class="cluster">
<title>cluster_\Anax\Database</title>
<path fill="none" stroke="#c0c0c0" d="M1111.8305,-850C1111.8305,-850 1207.8305,-850 1207.8305,-850 1213.8305,-850 1219.8305,-856 1219.8305,-862 1219.8305,-862 1219.8305,-992 1219.8305,-992 1219.8305,-998 1213.8305,-1004 1207.8305,-1004 1207.8305,-1004 1111.8305,-1004 1111.8305,-1004 1105.8305,-1004 1099.8305,-998 1099.8305,-992 1099.8305,-992 1099.8305,-862 1099.8305,-862 1099.8305,-856 1105.8305,-850 1111.8305,-850"/>
<text text-anchor="middle" x="1159.8305" y="-991.2" font-family="Times,serif" font-size="11.00" fill="#c0c0c0">Database</text>
</g>
<g id="clust19" class="cluster">
<title>cluster_\Anax\Database\Exception</title>
<path fill="none" stroke="#c0c0c0" d="M1125.3305,-904C1125.3305,-904 1194.3305,-904 1194.3305,-904 1200.3305,-904 1206.3305,-910 1206.3305,-916 1206.3305,-916 1206.3305,-964 1206.3305,-964 1206.3305,-970 1200.3305,-976 1194.3305,-976 1194.3305,-976 1125.3305,-976 1125.3305,-976 1119.3305,-976 1113.3305,-970 1113.3305,-964 1113.3305,-964 1113.3305,-916 1113.3305,-916 1113.3305,-910 1119.3305,-904 1125.3305,-904"/>
<text text-anchor="middle" x="1159.8305" y="-963.2" font-family="Times,serif" font-size="11.00" fill="#c0c0c0">Exception</text>
</g>
<g id="clust20" class="cluster">
<title>cluster_\Anax\Navigation</title>
<path fill="none" stroke="#c0c0c0" d="M1131.3305,-770C1131.3305,-770 1187.3305,-770 1187.3305,-770 1193.3305,-770 1199.3305,-776 1199.3305,-782 1199.3305,-782 1199.3305,-830 1199.3305,-830 1199.3305,-836 1193.3305,-842 1187.3305,-842 1187.3305,-842 1131.3305,-842 1131.3305,-842 1125.3305,-842 1119.3305,-836 1119.3305,-830 1119.3305,-830 1119.3305,-782 1119.3305,-782 1119.3305,-776 1125.3305,-770 1131.3305,-770"/>
<text text-anchor="middle" x="1159.3305" y="-829.2" font-family="Times,serif" font-size="11.00" fill="#c0c0c0">Navigation</text>
</g>
<g id="clust21" class="cluster">
<title>cluster_\Anax\Cache</title>
<path fill="none" stroke="#c0c0c0" d="M1074.3305,-422C1074.3305,-422 1245.3305,-422 1245.3305,-422 1251.3305,-422 1257.3305,-428 1257.3305,-434 1257.3305,-434 1257.3305,-590 1257.3305,-590 1257.3305,-596 1251.3305,-602 1245.3305,-602 1245.3305,-602 1074.3305,-602 1074.3305,-602 1068.3305,-602 1062.3305,-596 1062.3305,-590 1062.3305,-590 1062.3305,-434 1062.3305,-434 1062.3305,-428 1068.3305,-422 1074.3305,-422"/>
<text text-anchor="middle" x="1159.8305" y="-589.2" font-family="Times,serif" font-size="11.00" fill="#c0c0c0">Cache</text>
</g>
<g id="clust22" class="cluster">
<title>cluster_\Anax\StyleChooser</title>
<path fill="none" stroke="#c0c0c0" d="M1081.3305,-610C1081.3305,-610 1238.3305,-610 1238.3305,-610 1244.3305,-610 1250.3305,-616 1250.3305,-622 1250.3305,-622 1250.3305,-670 1250.3305,-670 1250.3305,-676 1244.3305,-682 1238.3305,-682 1238.3305,-682 1081.3305,-682 1081.3305,-682 1075.3305,-682 1069.3305,-676 1069.3305,-670 1069.3305,-670 1069.3305,-622 1069.3305,-622 1069.3305,-616 1075.3305,-610 1081.3305,-610"/>
<text text-anchor="middle" x="1159.8305" y="-669.2" font-family="Times,serif" font-size="11.00" fill="#c0c0c0">StyleChooser</text>
</g>
<g id="clust23" class="cluster">
<title>cluster_\Anax\Page</title>
<path fill="none" stroke="#c0c0c0" d="M1136.8305,-690C1136.8305,-690 1182.8305,-690 1182.8305,-690 1188.8305,-690 1194.8305,-696 1194.8305,-702 1194.8305,-702 1194.8305,-750 1194.8305,-750 1194.8305,-756 1188.8305,-762 1182.8305,-762 1182.8305,-762 1136.8305,-762 1136.8305,-762 1130.8305,-762 1124.8305,-756 1124.8305,-750 1124.8305,-750 1124.8305,-702 1124.8305,-702 1124.8305,-696 1130.8305,-690 1136.8305,-690"/>
<text text-anchor="middle" x="1159.8305" y="-749.2" font-family="Times,serif" font-size="11.00" fill="#c0c0c0">Page</text>
</g>
<g id="clust24" class="cluster">
<title>cluster_\Elpr</title>
<path fill="none" stroke="#c0c0c0" d="M1090.3305,-3598C1090.3305,-3598 1229.3305,-3598 1229.3305,-3598 1235.3305,-3598 1241.3305,-3604 1241.3305,-3610 1241.3305,-3610 1241.3305,-4176 1241.3305,-4176 1241.3305,-4182 1235.3305,-4188 1229.3305,-4188 1229.3305,-4188 1090.3305,-4188 1090.3305,-4188 1084.3305,-4188 1078.3305,-4182 1078.3305,-4176 1078.3305,-4176 1078.3305,-3610 1078.3305,-3610 1078.3305,-3604 1084.3305,-3598 1090.3305,-3598"/>
<text text-anchor="middle" x="1159.8305" y="-4175.2" font-family="Times,serif" font-size="11.00" fill="#c0c0c0">Elpr</text>
</g>
<g id="clust25" class="cluster">
<title>cluster_\Elpr\Product</title>
<path fill="none" stroke="#c0c0c0" d="M1098.3305,-3766C1098.3305,-3766 1221.3305,-3766 1221.3305,-3766 1227.3305,-3766 1233.3305,-3772 1233.3305,-3778 1233.3305,-3778 1233.3305,-3880 1233.3305,-3880 1233.3305,-3886 1227.3305,-3892 1221.3305,-3892 1221.3305,-3892 1098.3305,-3892 1098.3305,-3892 1092.3305,-3892 1086.3305,-3886 1086.3305,-3880 1086.3305,-3880 1086.3305,-3778 1086.3305,-3778 1086.3305,-3772 1092.3305,-3766 1098.3305,-3766"/>
<text text-anchor="middle" x="1159.8305" y="-3879.2" font-family="Times,serif" font-size="11.00" fill="#c0c0c0">Product</text>
</g>
<g id="clust26" class="cluster">
<title>cluster_\Elpr\Base</title>
<path fill="none" stroke="#c0c0c0" d="M1108.3305,-3686C1108.3305,-3686 1211.3305,-3686 1211.3305,-3686 1217.3305,-3686 1223.3305,-3692 1223.3305,-3698 1223.3305,-3698 1223.3305,-3746 1223.3305,-3746 1223.3305,-3752 1217.3305,-3758 1211.3305,-3758 1211.3305,-3758 1108.3305,-3758 1108.3305,-3758 1102.3305,-3758 1096.3305,-3752 1096.3305,-3746 1096.3305,-3746 1096.3305,-3698 1096.3305,-3698 1096.3305,-3692 1102.3305,-3686 1108.3305,-3686"/>
<text text-anchor="middle" x="1159.8305" y="-3745.2" font-family="Times,serif" font-size="11.00" fill="#c0c0c0">Base</text>
</g>
<g id="clust27" class="cluster">
<title>cluster_\Elpr\Content</title>
<path fill="none" stroke="#c0c0c0" d="M1098.3305,-4034C1098.3305,-4034 1221.3305,-4034 1221.3305,-4034 1227.3305,-4034 1233.3305,-4040 1233.3305,-4046 1233.3305,-4046 1233.3305,-4148 1233.3305,-4148 1233.3305,-4154 1227.3305,-4160 1221.3305,-4160 1221.3305,-4160 1098.3305,-4160 1098.3305,-4160 1092.3305,-4160 1086.3305,-4154 1086.3305,-4148 1086.3305,-4148 1086.3305,-4046 1086.3305,-4046 1086.3305,-4040 1092.3305,-4034 1098.3305,-4034"/>
<text text-anchor="middle" x="1159.8305" y="-4147.2" font-family="Times,serif" font-size="11.00" fill="#c0c0c0">Content</text>
</g>
<g id="clust28" class="cluster">
<title>cluster_\Elpr\Login</title>
<path fill="none" stroke="#c0c0c0" d="M1104.8305,-3900C1104.8305,-3900 1214.8305,-3900 1214.8305,-3900 1220.8305,-3900 1226.8305,-3906 1226.8305,-3912 1226.8305,-3912 1226.8305,-4014 1226.8305,-4014 1226.8305,-4020 1220.8305,-4026 1214.8305,-4026 1214.8305,-4026 1104.8305,-4026 1104.8305,-4026 1098.8305,-4026 1092.8305,-4020 1092.8305,-4014 1092.8305,-4014 1092.8305,-3912 1092.8305,-3912 1092.8305,-3906 1098.8305,-3900 1104.8305,-3900"/>
<text text-anchor="middle" x="1159.8305" y="-4013.2" font-family="Times,serif" font-size="11.00" fill="#c0c0c0">Login</text>
</g>
<g id="clust29" class="cluster">
<title>cluster_\Elpr\MyTextFilter</title>
<path fill="none" stroke="#c0c0c0" d="M1114.8305,-3606C1114.8305,-3606 1204.8305,-3606 1204.8305,-3606 1210.8305,-3606 1216.8305,-3612 1216.8305,-3618 1216.8305,-3618 1216.8305,-3666 1216.8305,-3666 1216.8305,-3672 1210.8305,-3678 1204.8305,-3678 1204.8305,-3678 1114.8305,-3678 1114.8305,-3678 1108.8305,-3678 1102.8305,-3672 1102.8305,-3666 1102.8305,-3666 1102.8305,-3618 1102.8305,-3618 1102.8305,-3612 1108.8305,-3606 1114.8305,-3606"/>
<text text-anchor="middle" x="1159.8305" y="-3665.2" font-family="Times,serif" font-size="11.00" fill="#c0c0c0">MyTextFilter</text>
</g>
<!-- \\Anax\\Configure\\Configuration -->
<g id="node1" class="node">
<title>\\Anax\\Configure\\Configuration</title>
<polygon fill="none" stroke="#000000" points="812.2001,-2147 708.2001,-2147 708.2001,-2111 812.2001,-2111 812.2001,-2147"/>
<text text-anchor="middle" x="760.2001" y="-2126.2" font-family="Courier,monospace" font-size="11.00" fill="#000000">Configuration</text>
</g>
<!-- \\Anax\\Configure\\Exception -->
<g id="node2" class="node">
<title>\\Anax\\Configure\\Exception</title>
<polygon fill="none" stroke="#000000" points="798.7001,-2039 721.7001,-2039 721.7001,-2003 798.7001,-2003 798.7001,-2039"/>
<text text-anchor="middle" x="760.2001" y="-2018.2" font-family="Courier,monospace" font-size="11.00" fill="#000000">Exception</text>
</g>
<!-- \\Exception -->
<g id="node72" class="node">
<title>\\Exception</title>
<ellipse fill="none" stroke="#000000" cx="760.2001" cy="-234" rx="60.3893" ry="18"/>
<text text-anchor="middle" x="760.2001" y="-230.3" font-family="Times,serif" font-size="14.00" fill="#c0c0c0">\Exception</text>
</g>
<!-- \\Anax\\Configure\\Exception&#45;&gt;\\Exception -->
<g id="edge42" class="edge">
<title>\\Anax\\Configure\\Exception&#45;&gt;\\Exception</title>
<path fill="none" stroke="#000000" d="M798.7961,-2029.8008C856.7889,-2040.4462 964.819,-2049.6975 1013.8305,-1985 1041.9595,-1947.8683 1041.7788,-345.2679 1013.8305,-308 971.8817,-252.0631 889.9654,-236.5036 830.5505,-233.0693"/>
<polygon fill="none" stroke="#000000" points="830.632,-229.5693 820.4768,-232.5896 830.2989,-236.5614 830.632,-229.5693"/>
</g>
<!-- \\Anax\\Configure\\ConfigureInterface -->
<g id="node3" class="node">
<title>\\Anax\\Configure\\ConfigureInterface</title>
<polygon fill="none" stroke="#000000" points="829.2001,-2093 691.2001,-2093 691.2001,-2057 829.2001,-2057 829.2001,-2093"/>
<text text-anchor="middle" x="760.2001" y="-2072.2" font-family="Courier,monospace" font-size="11.00" fill="#000000">ConfigureInterface</text>
</g>
<!-- \\Anax\\Configure\\ConfigureTrait -->
<g id="node4" class="node">
<title>\\Anax\\Configure\\ConfigureTrait</title>
<polygon fill="none" stroke="#000000" points="815.7001,-1985 704.7001,-1985 704.7001,-1949 815.7001,-1949 815.7001,-1985"/>
<text text-anchor="middle" x="760.2001" y="-1964.2" font-family="Courier,monospace" font-size="11.00" fill="#000000">ConfigureTrait</text>
</g>
<!-- \\Anax\\Configure\\Configure2Trait -->
<g id="node5" class="node">
<title>\\Anax\\Configure\\Configure2Trait</title>
<polygon fill="none" stroke="#000000" points="819.2001,-1931 701.2001,-1931 701.2001,-1895 819.2001,-1895 819.2001,-1931"/>
<text text-anchor="middle" x="760.2001" y="-1910.2" font-family="Courier,monospace" font-size="11.00" fill="#000000">Configure2Trait</text>
</g>
<!-- \\Anax\\Response\\Exception -->
<g id="node6" class="node">
<title>\\Anax\\Response\\Exception</title>
<polygon fill="none" stroke="#000000" points="1198.3305,-3480 1121.3305,-3480 1121.3305,-3444 1198.3305,-3444 1198.3305,-3480"/>
<text text-anchor="middle" x="1159.8305" y="-3459.2" font-family="Courier,monospace" font-size="11.00" fill="#000000">Exception</text>
</g>
<!-- \\Anax\\Response\\Exception&#45;&gt;\\Exception -->
<g id="edge2" class="edge">
<title>\\Anax\\Response\\Exception&#45;&gt;\\Exception</title>
<path fill="none" stroke="#000000" d="M1121.2801,-3453.373C1095.132,-3445.317 1062.4132,-3430.4275 1045.8305,-3404 954.1255,-3257.8525 1086.6674,-436.0333 981.8305,-299 946.9554,-253.4146 881.7913,-238.4849 831.1126,-234.181"/>
<polygon fill="none" stroke="#000000" points="831.0865,-230.67 820.8591,-233.4362 830.5793,-237.6516 831.0865,-230.67"/>
</g>
<!-- \\Anax\\Response\\ResponseUtility -->
<g id="node7" class="node">
<title>\\Anax\\Response\\ResponseUtility</title>
<polygon fill="none" stroke="#000000" points="1218.8305,-3534 1100.8305,-3534 1100.8305,-3498 1218.8305,-3498 1218.8305,-3534"/>
<text text-anchor="middle" x="1159.8305" y="-3513.2" font-family="Courier,monospace" font-size="11.00" fill="#000000">ResponseUtility</text>
</g>
<!-- \\Anax\\Response\\Response -->
<g id="node8" class="node">
<title>\\Anax\\Response\\Response</title>
<polygon fill="none" stroke="#000000" points="795.7001,-3534 724.7001,-3534 724.7001,-3498 795.7001,-3498 795.7001,-3534"/>
<text text-anchor="middle" x="760.2001" y="-3513.2" font-family="Courier,monospace" font-size="11.00" fill="#000000">Response</text>
</g>
<!-- \\Anax\\Response\\ResponseUtility&#45;&gt;\\Anax\\Response\\Response -->
<g id="edge26" class="edge">
<title>\\Anax\\Response\\ResponseUtility&#45;&gt;\\Anax\\Response\\Response</title>
<path fill="none" stroke="#000000" d="M1100.4333,-3516C1020.1282,-3516 878.6373,-3516 806.022,-3516"/>
<polygon fill="none" stroke="#000000" points="805.8235,-3512.5001 795.8235,-3516 805.8234,-3519.5001 805.8235,-3512.5001"/>
</g>
<!-- \\Anax\\Commons\\ContainerInjectableInterface -->
<g id="node35" class="node">
<title>\\Anax\\Commons\\ContainerInjectableInterface</title>
<polygon fill="none" stroke="#000000" points="863.2001,-2536 657.2001,-2536 657.2001,-2500 863.2001,-2500 863.2001,-2536"/>
<text text-anchor="middle" x="760.2001" y="-2515.2" font-family="Courier,monospace" font-size="11.00" fill="#000000">ContainerInjectableInterface</text>
</g>
<!-- \\Anax\\Response\\ResponseUtility&#45;&gt;\\Anax\\Commons\\ContainerInjectableInterface -->
<g id="edge27" class="edge">
<title>\\Anax\\Response\\ResponseUtility&#45;&gt;\\Anax\\Commons\\ContainerInjectableInterface</title>
<path fill="none" stroke="#000000" stroke-dasharray="1,5" d="M1100.5595,-3515.6745C1080.2688,-3512.4023 1059.3081,-3504.9053 1045.8305,-3489 909.9013,-3328.5873 1126.4739,-2697.6017 981.8305,-2545 954.2984,-2515.9531 912.9228,-2505.9446 873.349,-2504.3423"/>
<polygon fill="none" stroke="#000000" points="873.4148,-2500.843 863.3362,-2504.1096 873.2521,-2507.8411 873.4148,-2500.843"/>
</g>
<!-- \\Anax\\Controller\\SampleController -->
<g id="node9" class="node">
<title>\\Anax\\Controller\\SampleController</title>
<polygon fill="none" stroke="#000000" points="1222.3305,-2644 1097.3305,-2644 1097.3305,-2608 1222.3305,-2608 1222.3305,-2644"/>
<text text-anchor="middle" x="1159.8305" y="-2623.2" font-family="Courier,monospace" font-size="11.00" fill="#000000">SampleController</text>
</g>
<!-- \\Anax\\Controller\\SampleController&#45;&gt;\\Anax\\Commons\\ContainerInjectableInterface -->
<g id="edge3" class="edge">
<title>\\Anax\\Controller\\SampleController&#45;&gt;\\Anax\\Commons\\ContainerInjectableInterface</title>
<path fill="none" stroke="#000000" stroke-dasharray="1,5" d="M1097.0411,-2616.645C1079.8612,-2612.6305 1061.6332,-2606.9619 1045.8305,-2599 1012.5938,-2582.2544 1015.9472,-2559.8705 981.8305,-2545 948.214,-2530.3476 909.1758,-2522.8375 873.314,-2519.1919"/>
<polygon fill="none" stroke="#000000" points="873.5708,-2515.7008 863.2905,-2518.2634 872.925,-2522.6709 873.5708,-2515.7008"/>
</g>
<!-- \\Anax\\Controller\\DevelopmentController -->
<g id="node10" class="node">
<title>\\Anax\\Controller\\DevelopmentController</title>
<polygon fill="none" stroke="#000000" points="1238.8305,-2590 1080.8305,-2590 1080.8305,-2554 1238.8305,-2554 1238.8305,-2590"/>
<text text-anchor="middle" x="1159.8305" y="-2569.2" font-family="Courier,monospace" font-size="11.00" fill="#000000">DevelopmentController</text>
</g>
<!-- \\Anax\\Controller\\DevelopmentController&#45;&gt;\\Anax\\Commons\\ContainerInjectableInterface -->
<g id="edge14" class="edge">
<title>\\Anax\\Controller\\DevelopmentController&#45;&gt;\\Anax\\Commons\\ContainerInjectableInterface</title>
<path fill="none" stroke="#000000" stroke-dasharray="1,5" d="M1080.5976,-2559.4729C1049.7937,-2554.736 1014.1922,-2549.4247 981.8305,-2545 946.7014,-2540.197 908.3809,-2535.3792 873.6344,-2531.1704"/>
<polygon fill="none" stroke="#000000" points="873.8029,-2527.6655 863.4557,-2529.9425 872.9645,-2534.6151 873.8029,-2527.6655"/>
</g>
<!-- \\Anax\\Controller\\FlatFileContentController -->
<g id="node11" class="node">
<title>\\Anax\\Controller\\FlatFileContentController</title>
<polygon fill="none" stroke="#000000" points="1252.3305,-2536 1067.3305,-2536 1067.3305,-2500 1252.3305,-2500 1252.3305,-2536"/>
<text text-anchor="middle" x="1159.8305" y="-2515.2" font-family="Courier,monospace" font-size="11.00" fill="#000000">FlatFileContentController</text>
</g>
<!-- \\Anax\\Controller\\FlatFileContentController&#45;&gt;\\Anax\\Commons\\ContainerInjectableInterface -->
<g id="edge22" class="edge">
<title>\\Anax\\Controller\\FlatFileContentController&#45;&gt;\\Anax\\Commons\\ContainerInjectableInterface</title>
<path fill="none" stroke="#000000" stroke-dasharray="1,5" d="M1067.1428,-2518C1009.3716,-2518 934.6378,-2518 873.3777,-2518"/>
<polygon fill="none" stroke="#000000" points="873.2772,-2514.5001 863.2772,-2518 873.2772,-2521.5001 873.2772,-2514.5001"/>
</g>
<!-- \\Anax\\Controller\\SampleJsonController -->
<g id="node12" class="node">
<title>\\Anax\\Controller\\SampleJsonController</title>
<polygon fill="none" stroke="#000000" points="1235.8305,-2482 1083.8305,-2482 1083.8305,-2446 1235.8305,-2446 1235.8305,-2482"/>
<text text-anchor="middle" x="1159.8305" y="-2461.2" font-family="Courier,monospace" font-size="11.00" fill="#000000">SampleJsonController</text>
</g>
<!-- \\Anax\\Controller\\SampleJsonController&#45;&gt;\\Anax\\Commons\\ContainerInjectableInterface -->
<g id="edge33" class="edge">
<title>\\Anax\\Controller\\SampleJsonController&#45;&gt;\\Anax\\Commons\\ContainerInjectableInterface</title>
<path fill="none" stroke="#000000" stroke-dasharray="1,5" d="M1083.6763,-2476.0532C1052.1821,-2480.9072 1015.2761,-2486.4271 981.8305,-2491 946.7014,-2495.803 908.3809,-2500.6208 873.6344,-2504.8296"/>
<polygon fill="none" stroke="#000000" points="872.9645,-2501.3849 863.4557,-2506.0575 873.8029,-2508.3345 872.9645,-2501.3849"/>
</g>
<!-- \\Anax\\Controller\\SampleAppController -->
<g id="node13" class="node">
<title>\\Anax\\Controller\\SampleAppController</title>
<polygon fill="none" stroke="#000000" points="1232.3305,-2698 1087.3305,-2698 1087.3305,-2662 1232.3305,-2662 1232.3305,-2698"/>
<text text-anchor="middle" x="1159.8305" y="-2677.2" font-family="Courier,monospace" font-size="11.00" fill="#000000">SampleAppController</text>
</g>
<!-- \\Anax\\Commons\\AppInjectableInterface -->
<g id="node34" class="node">
<title>\\Anax\\Commons\\AppInjectableInterface</title>
<polygon fill="none" stroke="#000000" points="842.7001,-2590 677.7001,-2590 677.7001,-2554 842.7001,-2554 842.7001,-2590"/>
<text text-anchor="middle" x="760.2001" y="-2569.2" font-family="Courier,monospace" font-size="11.00" fill="#000000">AppInjectableInterface</text>
</g>
<!-- \\Anax\\Controller\\SampleAppController&#45;&gt;\\Anax\\Commons\\AppInjectableInterface -->
<g id="edge40" class="edge">
<title>\\Anax\\Controller\\SampleAppController&#45;&gt;\\Anax\\Commons\\AppInjectableInterface</title>
<path fill="none" stroke="#000000" stroke-dasharray="1,5" d="M1087.0394,-2663.2622C1073.3231,-2659.9661 1059.1174,-2656.4557 1045.8305,-2653 972.1486,-2633.8368 888.4059,-2609.8222 830.7406,-2592.9338"/>
<polygon fill="none" stroke="#000000" points="831.5822,-2589.5333 821.0013,-2590.0766 829.6117,-2596.2502 831.5822,-2589.5333"/>
</g>
<!-- \\Anax\\Controller\\ErrorHandlerController -->
<g id="node14" class="node">
<title>\\Anax\\Controller\\ErrorHandlerController</title>
<polygon fill="none" stroke="#000000" points="1242.3305,-2428 1077.3305,-2428 1077.3305,-2392 1242.3305,-2392 1242.3305,-2428"/>
<text text-anchor="middle" x="1159.8305" y="-2407.2" font-family="Courier,monospace" font-size="11.00" fill="#000000">ErrorHandlerController</text>
</g>
<!-- \\Anax\\Controller\\ErrorHandlerController&#45;&gt;\\Anax\\Commons\\ContainerInjectableInterface -->
<g id="edge45" class="edge">
<title>\\Anax\\Controller\\ErrorHandlerController&#45;&gt;\\Anax\\Commons\\ContainerInjectableInterface</title>
<path fill="none" stroke="#000000" stroke-dasharray="1,5" d="M1077.2287,-2424.6721C1066.382,-2427.9998 1055.639,-2432.0582 1045.8305,-2437 1012.5938,-2453.7456 1015.9472,-2476.1295 981.8305,-2491 948.214,-2505.6524 909.1758,-2513.1625 873.314,-2516.8081"/>
<polygon fill="none" stroke="#000000" points="872.925,-2513.3291 863.2905,-2517.7366 873.5708,-2520.2992 872.925,-2513.3291"/>
</g>
<!-- \\Anax\\TextFilter\\Filter\\Frontmatter -->
<g id="node15" class="node">
<title>\\Anax\\TextFilter\\Filter\\Frontmatter</title>
<polygon fill="none" stroke="#000000" points="1205.3305,-3372 1114.3305,-3372 1114.3305,-3336 1205.3305,-3336 1205.3305,-3372"/>
<text text-anchor="middle" x="1159.8305" y="-3351.2" font-family="Courier,monospace" font-size="11.00" fill="#000000">Frontmatter</text>
</g>
<!-- \\Anax\\TextFilter\\Filter\\FilterInterface -->
<g id="node18" class="node">
<title>\\Anax\\TextFilter\\Filter\\FilterInterface</title>
<polygon fill="none" stroke="#000000" points="819.2001,-3345 701.2001,-3345 701.2001,-3309 819.2001,-3309 819.2001,-3345"/>
<text text-anchor="middle" x="760.2001" y="-3324.2" font-family="Courier,monospace" font-size="11.00" fill="#000000">FilterInterface</text>
</g>
<!-- \\Anax\\TextFilter\\Filter\\Frontmatter&#45;&gt;\\Anax\\TextFilter\\Filter\\FilterInterface -->
<g id="edge7" class="edge">
<title>\\Anax\\TextFilter\\Filter\\Frontmatter&#45;&gt;\\Anax\\TextFilter\\Filter\\FilterInterface</title>
<path fill="none" stroke="#000000" stroke-dasharray="1,5" d="M1113.9878,-3350.9028C1044.2894,-3346.1938 911.1721,-3337.2 829.5825,-3331.6876"/>
<polygon fill="none" stroke="#000000" points="829.6187,-3328.1822 819.4055,-3331.0001 829.1468,-3335.1663 829.6187,-3328.1822"/>
</g>
<!-- \\Anax\\TextFilter\\Filter\\Variable -->
<g id="node16" class="node">
<title>\\Anax\\TextFilter\\Filter\\Variable</title>
<polygon fill="none" stroke="#000000" points="1195.3305,-3318 1124.3305,-3318 1124.3305,-3282 1195.3305,-3282 1195.3305,-3318"/>
<text text-anchor="middle" x="1159.8305" y="-3297.2" font-family="Courier,monospace" font-size="11.00" fill="#000000">Variable</text>
</g>
<!-- \\Anax\\TextFilter\\Filter\\Variable&#45;&gt;\\Anax\\TextFilter\\Filter\\FilterInterface -->
<g id="edge16" class="edge">
<title>\\Anax\\TextFilter\\Filter\\Variable&#45;&gt;\\Anax\\TextFilter\\Filter\\FilterInterface</title>
<path fill="none" stroke="#000000" stroke-dasharray="1,5" d="M1124.0142,-3302.4198C1057.8311,-3306.8913 915.3325,-3316.5189 829.6315,-3322.309"/>
<polygon fill="none" stroke="#000000" points="829.212,-3318.8293 819.4707,-3322.9955 829.6839,-3325.8134 829.212,-3318.8293"/>
</g>
<!-- \\Anax\\TextFilter\\Filter\\Exception -->
<g id="node17" class="node">
<title>\\Anax\\TextFilter\\Filter\\Exception</title>
<polygon fill="none" stroke="#000000" points="1198.3305,-3264 1121.3305,-3264 1121.3305,-3228 1198.3305,-3228 1198.3305,-3264"/>
<text text-anchor="middle" x="1159.8305" y="-3243.2" font-family="Courier,monospace" font-size="11.00" fill="#000000">Exception</text>
</g>
<!-- \\Anax\\TextFilter\\Filter\\Exception&#45;&gt;\\Exception -->
<g id="edge41" class="edge">
<title>\\Anax\\TextFilter\\Filter\\Exception&#45;&gt;\\Exception</title>
<path fill="none" stroke="#000000" d="M1121.2085,-3249.8335C1095.7274,-3250.0233 1063.8369,-3245.334 1045.8305,-3224 940.9936,-3099.79 1080.6743,-428.0301 981.8305,-299 946.9266,-253.4367 881.7658,-238.5044 831.0957,-234.1939"/>
<polygon fill="none" stroke="#000000" points="831.0719,-230.683 820.8441,-233.4477 830.5636,-237.6645 831.0719,-230.683"/>
</g>
<!-- \\Anax\\TextFilter\\Exception -->
<g id="node19" class="node">
<title>\\Anax\\TextFilter\\Exception</title>
<polygon fill="none" stroke="#000000" points="1198.3305,-3210 1121.3305,-3210 1121.3305,-3174 1198.3305,-3174 1198.3305,-3210"/>
<text text-anchor="middle" x="1159.8305" y="-3189.2" font-family="Courier,monospace" font-size="11.00" fill="#000000">Exception</text>
</g>
<!-- \\Anax\\TextFilter\\Exception&#45;&gt;\\Exception -->
<g id="edge10" class="edge">
<title>\\Anax\\TextFilter\\Exception&#45;&gt;\\Exception</title>
<path fill="none" stroke="#000000" d="M1121.3035,-3194.0081C1095.6943,-3193.0494 1063.6136,-3186.9781 1045.8305,-3165 945.6526,-3041.1906 1078.71,-425.4069 981.8305,-299 946.9163,-253.4445 881.7568,-238.5113 831.0897,-234.1985"/>
<polygon fill="none" stroke="#000000" points="831.0667,-230.6876 820.8388,-233.4518 830.5581,-237.6691 831.0667,-230.6876"/>
</g>
<!-- \\Anax\\TextFilter\\TextFilter -->
<g id="node20" class="node">
<title>\\Anax\\TextFilter\\TextFilter</title>
<polygon fill="none" stroke="#000000" points="1201.8305,-3156 1117.8305,-3156 1117.8305,-3120 1201.8305,-3120 1201.8305,-3156"/>
<text text-anchor="middle" x="1159.8305" y="-3135.2" font-family="Courier,monospace" font-size="11.00" fill="#000000">TextFilter</text>
</g>
<!-- \\Anax\\TextFilter\\TShortcode -->
<g id="node21" class="node">
<title>\\Anax\\TextFilter\\TShortcode</title>
<polygon fill="none" stroke="#000000" points="1201.8305,-3102 1117.8305,-3102 1117.8305,-3066 1201.8305,-3066 1201.8305,-3102"/>
<text text-anchor="middle" x="1159.8305" y="-3081.2" font-family="Courier,monospace" font-size="11.00" fill="#000000">TShortcode</text>
</g>
<!-- \\Anax\\TextFilter\\TTextUtilities -->
<g id="node22" class="node">
<title>\\Anax\\TextFilter\\TTextUtilities</title>
<polygon fill="none" stroke="#000000" points="1215.3305,-3048 1104.3305,-3048 1104.3305,-3012 1215.3305,-3012 1215.3305,-3048"/>
<text text-anchor="middle" x="1159.8305" y="-3027.2" font-family="Courier,monospace" font-size="11.00" fill="#000000">TTextUtilities</text>
</g>
<!-- \\Anax\\DI\\Exception\\Exception -->
<g id="node23" class="node">
<title>\\Anax\\DI\\Exception\\Exception</title>
<polygon fill="none" stroke="#000000" points="1198.3305,-2940 1121.3305,-2940 1121.3305,-2904 1198.3305,-2904 1198.3305,-2940"/>
<text text-anchor="middle" x="1159.8305" y="-2919.2" font-family="Courier,monospace" font-size="11.00" fill="#000000">Exception</text>
</g>
<!-- \\Anax\\DI\\Exception\\Exception&#45;&gt;\\Exception -->
<g id="edge4" class="edge">
<title>\\Anax\\DI\\Exception\\Exception&#45;&gt;\\Exception</title>
<path fill="none" stroke="#000000" d="M1121.3195,-2923.9952C1095.7176,-2923.0305 1063.6391,-2916.9574 1045.8305,-2895 864.0797,-2670.9075 1157.6111,-527.8054 981.8305,-299 946.8635,-253.4851 881.7102,-238.5471 831.0589,-234.2221"/>
<polygon fill="none" stroke="#000000" points="831.04,-230.7115 820.8114,-233.4728 830.5295,-237.6929 831.04,-230.7115"/>
</g>
<!-- \\Psr\\Container\\ContainerExceptionInterface -->
<g id="node73" class="node">
<title>\\Psr\\Container\\ContainerExceptionInterface</title>
<ellipse fill="none" stroke="#000000" cx="760.2001" cy="-380" rx="217.1615" ry="18"/>
<text text-anchor="middle" x="760.2001" y="-376.3" font-family="Times,serif" font-size="14.00" fill="#c0c0c0">\Psr\Container\ContainerExceptionInterface</text>
</g>
<!-- \\Anax\\DI\\Exception\\Exception&#45;&gt;\\Psr\\Container\\ContainerExceptionInterface -->
<g id="edge5" class="edge">
<title>\\Anax\\DI\\Exception\\Exception&#45;&gt;\\Psr\\Container\\ContainerExceptionInterface</title>
<path fill="none" stroke="#000000" stroke-dasharray="1,5" d="M1121.1759,-2923.8757C1095.6801,-2922.8284 1063.7854,-2916.7061 1045.8305,-2895 942.687,-2770.3079 1002.0116,-1600.5596 981.8305,-1440 929.6013,-1024.4691 800.4576,-529.4992 767.7988,-407.959"/>
<polygon fill="none" stroke="#000000" points="771.1758,-407.0389 765.1934,-398.2947 764.4171,-408.8611 771.1758,-407.0389"/>
</g>
<!-- \\Anax\\DI\\Exception\\NotFoundException -->
<g id="node24" class="node">
<title>\\Anax\\DI\\Exception\\NotFoundException</title>
<polygon fill="none" stroke="#000000" points="1225.3305,-2886 1094.3305,-2886 1094.3305,-2850 1225.3305,-2850 1225.3305,-2886"/>
<text text-anchor="middle" x="1159.8305" y="-2865.2" font-family="Courier,monospace" font-size="11.00" fill="#000000">NotFoundException</text>
</g>
<!-- \\Anax\\DI\\Exception\\NotFoundException&#45;&gt;\\Exception -->
<g id="edge12" class="edge">
<title>\\Anax\\DI\\Exception\\NotFoundException&#45;&gt;\\Exception</title>
<path fill="none" stroke="#000000" d="M1094.1723,-2869.9055C1075.908,-2866.9734 1057.8144,-2860.1519 1045.8305,-2846 862.8884,-2629.9635 1154.3485,-523.4484 981.8305,-299 946.8527,-253.4934 881.7007,-238.5544 831.0526,-234.227"/>
<polygon fill="none" stroke="#000000" points="831.0346,-230.7164 820.8058,-233.4772 830.5237,-237.6977 831.0346,-230.7164"/>
</g>
<!-- \\Psr\\Container\\NotFoundExceptionInterface -->
<g id="node74" class="node">
<title>\\Psr\\Container\\NotFoundExceptionInterface</title>
<ellipse fill="none" stroke="#000000" cx="760.2001" cy="-326" rx="217.1615" ry="18"/>
<text text-anchor="middle" x="760.2001" y="-322.3" font-family="Times,serif" font-size="14.00" fill="#c0c0c0">\Psr\Container\NotFoundExceptionInterface</text>
</g>
<!-- \\Anax\\DI\\Exception\\NotFoundException&#45;&gt;\\Psr\\Container\\NotFoundExceptionInterface -->
<g id="edge13" class="edge">
<title>\\Anax\\DI\\Exception\\NotFoundException&#45;&gt;\\Psr\\Container\\NotFoundExceptionInterface</title>
<path fill="none" stroke="#000000" stroke-dasharray="1,5" d="M1094.177,-2869.9015C1075.913,-2866.9692 1057.8183,-2860.1486 1045.8305,-2846 866.707,-2634.5896 1168.1817,-558.0677 981.8305,-353 977.1015,-347.7961 971.9298,-343.1941 966.4019,-339.1348"/>
<polygon fill="none" stroke="#000000" points="968.3194,-336.2067 958.0582,-333.569 964.4349,-342.03 968.3194,-336.2067"/>
</g>
<!-- \\Anax\\DI\\DI -->
<g id="node25" class="node">
<title>\\Anax\\DI\\DI</title>
<polygon fill="none" stroke="#000000" points="466.5698,-2778 412.5698,-2778 412.5698,-2742 466.5698,-2742 466.5698,-2778"/>
<text text-anchor="middle" x="439.5698" y="-2757.2" font-family="Courier,monospace" font-size="11.00" fill="#000000">DI</text>
</g>
<!-- \\Psr\\Container\\ContainerInterface -->
<g id="node75" class="node">
<title>\\Psr\\Container\\ContainerInterface</title>
<ellipse fill="none" stroke="#000000" cx="170.2849" cy="-1520" rx="170.0701" ry="18"/>
<text text-anchor="middle" x="170.2849" y="-1516.3" font-family="Times,serif" font-size="14.00" fill="#c0c0c0">\Psr\Container\ContainerInterface</text>
</g>
<!-- \\Anax\\DI\\DI&#45;&gt;\\Psr\\Container\\ContainerInterface -->
<g id="edge15" class="edge">
<title>\\Anax\\DI\\DI&#45;&gt;\\Psr\\Container\\ContainerInterface</title>
<path fill="none" stroke="#000000" stroke-dasharray="1,5" d="M435.6593,-2741.993C405.7406,-2604.2238 213.267,-1717.9235 176.3888,-1548.1073"/>
<polygon fill="none" stroke="#000000" points="179.7765,-1547.214 174.2339,-1538.1845 172.9359,-1548.6995 179.7765,-1547.214"/>
</g>
<!-- \\Anax\\DI\\DIMagic -->
<g id="node26" class="node">
<title>\\Anax\\DI\\DIMagic</title>
<polygon fill="none" stroke="#000000" points="1191.8305,-2832 1127.8305,-2832 1127.8305,-2796 1191.8305,-2796 1191.8305,-2832"/>
<text text-anchor="middle" x="1159.8305" y="-2811.2" font-family="Courier,monospace" font-size="11.00" fill="#000000">DIMagic</text>
</g>
<!-- \\Anax\\DI\\DIFactoryConfig -->
<g id="node27" class="node">
<title>\\Anax\\DI\\DIFactoryConfig</title>
<polygon fill="none" stroke="#000000" points="819.2001,-2778 701.2001,-2778 701.2001,-2742 819.2001,-2742 819.2001,-2778"/>
<text text-anchor="middle" x="760.2001" y="-2757.2" font-family="Courier,monospace" font-size="11.00" fill="#000000">DIFactoryConfig</text>
</g>
<!-- \\Anax\\DI\\DIMagic&#45;&gt;\\Anax\\DI\\DIFactoryConfig -->
<g id="edge17" class="edge">
<title>\\Anax\\DI\\DIMagic&#45;&gt;\\Anax\\DI\\DIFactoryConfig</title>
<path fill="none" stroke="#000000" d="M1127.8026,-2809.6722C1063.3969,-2800.9694 916.9136,-2781.1759 829.549,-2769.3708"/>
<polygon fill="none" stroke="#000000" points="829.8371,-2765.878 819.4585,-2768.0073 828.8997,-2772.8149 829.8371,-2765.878"/>
</g>
<!-- \\Anax\\DI\\DIMagic&#45;&gt;\\Psr\\Container\\ContainerInterface -->
<g id="edge18" class="edge">
<title>\\Anax\\DI\\DIMagic&#45;&gt;\\Psr\\Container\\ContainerInterface</title>
<path fill="none" stroke="#000000" stroke-dasharray="1,5" d="M1127.7985,-2816.1325C1101.3731,-2815.9522 1065.1893,-2810.8427 1045.8305,-2787 958.676,-2679.6589 1079.1447,-397.2241 981.8305,-299 939.3991,-256.1719 499.8464,-278.8188 439.5698,-280"/>
<path fill="none" stroke="#000000" stroke-dasharray="1,5" d="M439.5698,-280C311.3478,-282.4751 193.585,-1306.4217 173.3445,-1491.5013"/>
<polygon fill="none" stroke="#000000" points="169.8536,-1491.2286 172.2516,-1501.5485 176.8125,-1491.9856 169.8536,-1491.2286"/>
</g>
<!-- \\Anax\\DI\\DIFactoryConfig&#45;&gt;\\Anax\\DI\\DI -->
<g id="edge36" class="edge">
<title>\\Anax\\DI\\DIFactoryConfig&#45;&gt;\\Anax\\DI\\DI</title>
<path fill="none" stroke="#000000" d="M701.0179,-2760C635.4017,-2760 531.5815,-2760 476.5891,-2760"/>
<polygon fill="none" stroke="#000000" points="476.5883,-2756.5001 466.5882,-2760 476.5882,-2763.5001 476.5883,-2756.5001"/>
</g>
<!-- \\Anax\\DI\\DIFactoryConfig&#45;&gt;\\Psr\\Container\\ContainerInterface -->
<g id="edge37" class="edge">
<title>\\Anax\\DI\\DIFactoryConfig&#45;&gt;\\Psr\\Container\\ContainerInterface</title>
<path fill="none" stroke="#000000" stroke-dasharray="1,5" d="M703.2431,-2741.9145C650.3804,-2721.8089 574.5975,-2683.7632 538.5698,-2622 472.9531,-2509.5117 569.7721,-277.4486 439.5698,-280"/>
</g>
<!-- \\Anax\\DI\\DIMagicTrait -->
<g id="node28" class="node">
<title>\\Anax\\DI\\DIMagicTrait</title>
<polygon fill="none" stroke="#000000" points="1208.8305,-2778 1110.8305,-2778 1110.8305,-2742 1208.8305,-2742 1208.8305,-2778"/>
<text text-anchor="middle" x="1159.8305" y="-2757.2" font-family="Courier,monospace" font-size="11.00" fill="#000000">DIMagicTrait</text>
</g>
<!-- \\Anax\\Request\\Request -->
<g id="node29" class="node">
<title>\\Anax\\Request\\Request</title>
<polygon fill="none" stroke="#000000" points="1191.8305,-2214 1127.8305,-2214 1127.8305,-2178 1191.8305,-2178 1191.8305,-2214"/>
<text text-anchor="middle" x="1159.8305" y="-2193.2" font-family="Courier,monospace" font-size="11.00" fill="#000000">Request</text>
</g>
<!-- \\Anax\\Request\\Exception -->
<g id="node30" class="node">
<title>\\Anax\\Request\\Exception</title>
<polygon fill="none" stroke="#000000" points="1198.3305,-2160 1121.3305,-2160 1121.3305,-2124 1198.3305,-2124 1198.3305,-2160"/>
<text text-anchor="middle" x="1159.8305" y="-2139.2" font-family="Courier,monospace" font-size="11.00" fill="#000000">Exception</text>
</g>
<!-- \\Anax\\Request\\Exception&#45;&gt;\\Exception -->
<g id="edge30" class="edge">
<title>\\Anax\\Request\\Exception&#45;&gt;\\Exception</title>
<path fill="none" stroke="#000000" d="M1121.2863,-2142.856C1095.6692,-2141.1599 1063.5861,-2134.2254 1045.8305,-2112 917.7301,-1951.6522 1118.8523,-418.7944 981.8305,-266 942.8571,-222.5405 873.3546,-219.0537 822.5444,-223.5997"/>
<polygon fill="none" stroke="#000000" points="821.9179,-220.1454 812.3252,-224.6432 822.6291,-227.1092 821.9179,-220.1454"/>
</g>
<!-- \\Anax\\Url\\Url -->
<g id="node31" class="node">
<title>\\Anax\\Url\\Url</title>
<polygon fill="none" stroke="#000000" points="1186.8305,-2348 1132.8305,-2348 1132.8305,-2312 1186.8305,-2312 1186.8305,-2348"/>
<text text-anchor="middle" x="1159.8305" y="-2327.2" font-family="Courier,monospace" font-size="11.00" fill="#000000">Url</text>
</g>
<!-- \\Anax\\Url\\Url&#45;&gt;\\Anax\\Configure\\ConfigureInterface -->
<g id="edge6" class="edge">
<title>\\Anax\\Url\\Url&#45;&gt;\\Anax\\Configure\\ConfigureInterface</title>
<path fill="none" stroke="#000000" stroke-dasharray="1,5" d="M1132.3767,-2330.7493C1106.8198,-2329.9457 1069.2484,-2324.7091 1045.8305,-2303 977.0763,-2239.2631 1054.0242,-2161.813 981.8305,-2102 942.7601,-2069.63 885.7012,-2063.3034 839.2637,-2064.8504"/>
<polygon fill="none" stroke="#000000" points="839.0536,-2061.3563 829.2245,-2065.311 839.3744,-2068.3489 839.0536,-2061.3563"/>
</g>
<!-- \\Anax\\Url\\Exception -->
<g id="node32" class="node">
<title>\\Anax\\Url\\Exception</title>
<polygon fill="none" stroke="#000000" points="1198.3305,-2294 1121.3305,-2294 1121.3305,-2258 1198.3305,-2258 1198.3305,-2294"/>
<text text-anchor="middle" x="1159.8305" y="-2273.2" font-family="Courier,monospace" font-size="11.00" fill="#000000">Exception</text>
</g>
<!-- \\Anax\\Url\\Exception&#45;&gt;\\Exception -->
<g id="edge32" class="edge">
<title>\\Anax\\Url\\Exception&#45;&gt;\\Exception</title>
<path fill="none" stroke="#000000" d="M1121.27,-2276.869C1095.6454,-2275.1789 1063.5601,-2268.2462 1045.8305,-2246 908.6437,-2073.8652 1128.595,-430.0449 981.8305,-266 942.9081,-222.4948 873.3967,-219.016 822.5706,-223.5763"/>
<polygon fill="none" stroke="#000000" points="821.9395,-220.1225 812.348,-224.6228 822.6525,-227.0861 821.9395,-220.1225"/>
</g>
<!-- \\Anax\\Session\\SessionInterface -->
<g id="node33" class="node">
<title>\\Anax\\Session\\SessionInterface</title>
<polygon fill="none" stroke="#000000" points="1222.3305,-2080 1097.3305,-2080 1097.3305,-2044 1222.3305,-2044 1222.3305,-2080"/>
<text text-anchor="middle" x="1159.8305" y="-2059.2" font-family="Courier,monospace" font-size="11.00" fill="#000000">SessionInterface</text>
</g>
<!-- \\Anax\\Commons\\ContainerInjectableTrait -->
<g id="node36" class="node">
<title>\\Anax\\Commons\\ContainerInjectableTrait</title>
<polygon fill="none" stroke="#000000" points="849.7001,-2482 670.7001,-2482 670.7001,-2446 849.7001,-2446 849.7001,-2482"/>
<text text-anchor="middle" x="760.2001" y="-2461.2" font-family="Courier,monospace" font-size="11.00" fill="#000000">ContainerInjectableTrait</text>
</g>
<!-- \\Anax\\Commons\\AppInjectableTrait -->
<g id="node37" class="node">
<title>\\Anax\\Commons\\AppInjectableTrait</title>
<polygon fill="none" stroke="#000000" points="829.2001,-2428 691.2001,-2428 691.2001,-2392 829.2001,-2392 829.2001,-2428"/>
<text text-anchor="middle" x="760.2001" y="-2407.2" font-family="Courier,monospace" font-size="11.00" fill="#000000">AppInjectableTrait</text>
</g>
<!-- \\Anax\\Route\\Exception\\ConfigurationException -->
<g id="node38" class="node">
<title>\\Anax\\Route\\Exception\\ConfigurationException</title>
<polygon fill="none" stroke="#000000" points="1242.3305,-1272 1077.3305,-1272 1077.3305,-1236 1242.3305,-1236 1242.3305,-1272"/>
<text text-anchor="middle" x="1159.8305" y="-1251.2" font-family="Courier,monospace" font-size="11.00" fill="#000000">ConfigurationException</text>
</g>
<!-- \\Anax\\Route\\Exception\\ConfigurationException&#45;&gt;\\Exception -->
<g id="edge8" class="edge">
<title>\\Anax\\Route\\Exception\\ConfigurationException&#45;&gt;\\Exception</title>
<path fill="none" stroke="#000000" d="M1077.2596,-1247.7783C1065.2162,-1243.3829 1054.1085,-1236.7809 1045.8305,-1227 907.562,-1063.629 1127.2425,-423.0465 981.8305,-266 942.2937,-223.2999 873.2185,-219.5941 822.6655,-223.8803"/>
<polygon fill="none" stroke="#000000" points="822.1106,-220.4177 812.4967,-224.8698 822.7887,-227.3848 822.1106,-220.4177"/>
</g>
<!-- \\Anax\\Route\\Exception\\NotFoundException -->
<g id="node39" class="node">
<title>\\Anax\\Route\\Exception\\NotFoundException</title>
<polygon fill="none" stroke="#000000" points="1225.3305,-1218 1094.3305,-1218 1094.3305,-1182 1225.3305,-1182 1225.3305,-1218"/>
<text text-anchor="middle" x="1159.8305" y="-1197.2" font-family="Courier,monospace" font-size="11.00" fill="#000000">NotFoundException</text>
</g>
<!-- \\Anax\\Route\\Exception\\NotFoundException&#45;&gt;\\Exception -->
<g id="edge11" class="edge">
<title>\\Anax\\Route\\Exception\\NotFoundException&#45;&gt;\\Exception</title>
<path fill="none" stroke="#000000" d="M1094.2625,-1201.5213C1076.1141,-1198.5503 1058.0625,-1191.8036 1045.8305,-1178 911.0879,-1025.9457 1120.127,-414.8292 981.8305,-266 942.2177,-223.3704 873.1554,-219.6527 822.6262,-223.9168"/>
<polygon fill="none" stroke="#000000" points="822.0782,-220.4534 812.4624,-224.9016 822.7534,-227.4208 822.0782,-220.4534"/>
</g>
<!-- \\Anax\\Route\\Exception\\InternalErrorException -->
<g id="node40" class="node">
<title>\\Anax\\Route\\Exception\\InternalErrorException</title>
<polygon fill="none" stroke="#000000" points="1242.3305,-1380 1077.3305,-1380 1077.3305,-1344 1242.3305,-1344 1242.3305,-1380"/>
<text text-anchor="middle" x="1159.8305" y="-1359.2" font-family="Courier,monospace" font-size="11.00" fill="#000000">InternalErrorException</text>
</g>
<!-- \\Anax\\Route\\Exception\\InternalErrorException&#45;&gt;\\Exception -->
<g id="edge23" class="edge">
<title>\\Anax\\Route\\Exception\\InternalErrorException&#45;&gt;\\Exception</title>
<path fill="none" stroke="#000000" d="M1077.2037,-1355.8255C1065.1667,-1351.4246 1054.0756,-1344.8085 1045.8305,-1335 892.6977,-1152.8318 1142.9298,-441.1626 981.8305,-266 942.437,-223.1677 873.3375,-219.4843 822.7397,-223.8119"/>
<polygon fill="none" stroke="#000000" points="822.1718,-220.3507 812.5613,-224.8102 822.8552,-227.3173 822.1718,-220.3507"/>
</g>
<!-- \\Anax\\Route\\Exception\\ForbiddenException -->
<g id="node41" class="node">
<title>\\Anax\\Route\\Exception\\ForbiddenException</title>
<polygon fill="none" stroke="#000000" points="1228.8305,-1326 1090.8305,-1326 1090.8305,-1290 1228.8305,-1290 1228.8305,-1326"/>
<text text-anchor="middle" x="1159.8305" y="-1305.2" font-family="Courier,monospace" font-size="11.00" fill="#000000">ForbiddenException</text>
</g>
<!-- \\Anax\\Route\\Exception\\ForbiddenException&#45;&gt;\\Exception -->
<g id="edge28" class="edge">
<title>\\Anax\\Route\\Exception\\ForbiddenException&#45;&gt;\\Exception</title>
<path fill="none" stroke="#000000" d="M1090.7008,-1305.7837C1073.6725,-1301.8062 1057.107,-1294.3716 1045.8305,-1281 900.1304,-1108.2311 1135.0855,-432.1038 981.8305,-266 942.3691,-223.2302 873.2811,-219.5363 822.7045,-223.8443"/>
<polygon fill="none" stroke="#000000" points="822.1428,-220.3824 812.5307,-224.8384 822.8237,-227.3492 822.1428,-220.3824"/>
</g>
<!-- \\Anax\\Route\\RouteMatcher -->
<g id="node42" class="node">
<title>\\Anax\\Route\\RouteMatcher</title>
<polygon fill="none" stroke="#000000" points="1208.8305,-1164 1110.8305,-1164 1110.8305,-1128 1208.8305,-1128 1208.8305,-1164"/>
<text text-anchor="middle" x="1159.8305" y="-1143.2" font-family="Courier,monospace" font-size="11.00" fill="#000000">RouteMatcher</text>
</g>
<!-- \\Anax\\Route\\Route -->
<g id="node43" class="node">
<title>\\Anax\\Route\\Route</title>
<polygon fill="none" stroke="#000000" points="1186.8305,-1110 1132.8305,-1110 1132.8305,-1074 1186.8305,-1074 1186.8305,-1110"/>
<text text-anchor="middle" x="1159.8305" y="-1089.2" font-family="Courier,monospace" font-size="11.00" fill="#000000">Route</text>
</g>
<!-- \\Anax\\Route\\RouteHandler -->
<g id="node44" class="node">
<title>\\Anax\\Route\\RouteHandler</title>
<polygon fill="none" stroke="#000000" points="1208.8305,-1056 1110.8305,-1056 1110.8305,-1020 1208.8305,-1020 1208.8305,-1056"/>
<text text-anchor="middle" x="1159.8305" y="-1035.2" font-family="Courier,monospace" font-size="11.00" fill="#000000">RouteHandler</text>
</g>
<!-- \\Anax\\Content\\Exception -->
<g id="node45" class="node">
<title>\\Anax\\Content\\Exception</title>
<polygon fill="none" stroke="#000000" points="1198.3305,-1892 1121.3305,-1892 1121.3305,-1856 1198.3305,-1856 1198.3305,-1892"/>
<text text-anchor="middle" x="1159.8305" y="-1871.2" font-family="Courier,monospace" font-size="11.00" fill="#000000">Exception</text>
</g>
<!-- \\Anax\\Content\\Exception&#45;&gt;\\Exception -->
<g id="edge19" class="edge">
<title>\\Anax\\Content\\Exception&#45;&gt;\\Exception</title>
<path fill="none" stroke="#000000" d="M1121.1519,-1875.8955C1095.6452,-1874.8572 1063.7474,-1868.7375 1045.8305,-1847 934.0088,-1711.334 1099.5872,-396.5477 981.8305,-266 942.7312,-222.6537 873.2505,-219.1474 822.4799,-223.6578"/>
<polygon fill="none" stroke="#000000" points="821.8646,-220.2021 812.269,-224.6937 822.5713,-227.1664 821.8646,-220.2021"/>
</g>
<!-- \\Anax\\Content\\FileBasedContent -->
<g id="node46" class="node">
<title>\\Anax\\Content\\FileBasedContent</title>
<polygon fill="none" stroke="#000000" points="1222.3305,-2000 1097.3305,-2000 1097.3305,-1964 1222.3305,-1964 1222.3305,-2000"/>
<text text-anchor="middle" x="1159.8305" y="-1979.2" font-family="Courier,monospace" font-size="11.00" fill="#000000">FileBasedContent</text>
</g>
<!-- \\Anax\\Content\\FileBasedContent&#45;&gt;\\Anax\\Commons\\ContainerInjectableInterface -->
<g id="edge25" class="edge">
<title>\\Anax\\Content\\FileBasedContent&#45;&gt;\\Anax\\Commons\\ContainerInjectableInterface</title>
<path fill="none" stroke="#000000" stroke-dasharray="1,5" d="M1097.1716,-1996.562C1077.9152,-2004.0598 1058.4838,-2015.2862 1045.8305,-2032 921.5058,-2196.2208 1128.731,-2346.621 981.8305,-2491 953.6616,-2518.6853 912.805,-2528.6092 873.8233,-2530.5245"/>
<polygon fill="none" stroke="#000000" points="873.3126,-2527.0388 863.4282,-2530.8531 873.5338,-2534.0354 873.3126,-2527.0388"/>
</g>
<!-- \\Anax\\Content\\FileBasedContentController -->
<g id="node47" class="node">
<title>\\Anax\\Content\\FileBasedContentController</title>
<polygon fill="none" stroke="#000000" points="1255.8305,-1946 1063.8305,-1946 1063.8305,-1910 1255.8305,-1910 1255.8305,-1946"/>
<text text-anchor="middle" x="1159.8305" y="-1925.2" font-family="Courier,monospace" font-size="11.00" fill="#000000">FileBasedContentController</text>
</g>
<!-- \\Anax\\Content\\FileBasedContentController&#45;&gt;\\Anax\\Commons\\ContainerInjectableInterface -->
<g id="edge34" class="edge">
<title>\\Anax\\Content\\FileBasedContentController&#45;&gt;\\Anax\\Commons\\ContainerInjectableInterface</title>
<path fill="none" stroke="#000000" stroke-dasharray="1,5" d="M1063.8147,-1940.8461C1057.1061,-1944.5834 1050.9762,-1949.2331 1045.8305,-1955 886.1,-2134.0115 1151.273,-2321.1526 981.8305,-2491 953.8729,-2519.0244 912.9511,-2528.9865 873.8577,-2530.8373"/>
<polygon fill="none" stroke="#000000" points="873.3236,-2527.3515 863.4317,-2531.1463 873.531,-2534.3484 873.3236,-2527.3515"/>
</g>
<!-- \\Anax\\Content\\FBCBreadcrumbTrait -->
<g id="node48" class="node">
<title>\\Anax\\Content\\FBCBreadcrumbTrait</title>
<polygon fill="none" stroke="#000000" points="1228.8305,-1838 1090.8305,-1838 1090.8305,-1802 1228.8305,-1802 1228.8305,-1838"/>
<text text-anchor="middle" x="1159.8305" y="-1817.2" font-family="Courier,monospace" font-size="11.00" fill="#000000">FBCBreadcrumbTrait</text>
</g>
<!-- \\Anax\\Content\\FBCUtilitiesTrait -->
<g id="node49" class="node">
<title>\\Anax\\Content\\FBCUtilitiesTrait</title>
<polygon fill="none" stroke="#000000" points="1225.3305,-1784 1094.3305,-1784 1094.3305,-1748 1225.3305,-1748 1225.3305,-1784"/>
<text text-anchor="middle" x="1159.8305" y="-1763.2" font-family="Courier,monospace" font-size="11.00" fill="#000000">FBCUtilitiesTrait</text>
</g>
<!-- \\Anax\\Content\\FBCLoadAdditionalContentTrait -->
<g id="node50" class="node">
<title>\\Anax\\Content\\FBCLoadAdditionalContentTrait</title>
<polygon fill="none" stroke="#000000" points="1265.8305,-1730 1053.8305,-1730 1053.8305,-1694 1265.8305,-1694 1265.8305,-1730"/>
<text text-anchor="middle" x="1159.8305" y="-1709.2" font-family="Courier,monospace" font-size="11.00" fill="#000000">FBCLoadAdditionalContentTrait</text>
</g>
<!-- \\Anax\\View\\View -->
<g id="node51" class="node">
<title>\\Anax\\View\\View</title>
<polygon fill="none" stroke="#000000" points="1186.8305,-1650 1132.8305,-1650 1132.8305,-1614 1186.8305,-1614 1186.8305,-1650"/>
<text text-anchor="middle" x="1159.8305" y="-1629.2" font-family="Courier,monospace" font-size="11.00" fill="#000000">View</text>
</g>
<!-- \\Anax\\View\\ViewRenderFile -->
<g id="node52" class="node">
<title>\\Anax\\View\\ViewRenderFile</title>
<polygon fill="none" stroke="#000000" points="1215.3305,-1542 1104.3305,-1542 1104.3305,-1506 1215.3305,-1506 1215.3305,-1542"/>
<text text-anchor="middle" x="1159.8305" y="-1521.2" font-family="Courier,monospace" font-size="11.00" fill="#000000">ViewRenderFile</text>
</g>
<!-- \\Anax\\View\\ViewRenderFile&#45;&gt;\\Anax\\Commons\\ContainerInjectableInterface -->
<g id="edge21" class="edge">
<title>\\Anax\\View\\ViewRenderFile&#45;&gt;\\Anax\\Commons\\ContainerInjectableInterface</title>
<path fill="none" stroke="#000000" stroke-dasharray="1,5" d="M1104.1167,-1523.7955C1082.7511,-1526.7511 1060.0995,-1534.1657 1045.8305,-1551 910.4517,-1710.7167 1125.8856,-2339.0627 981.8305,-2491 954.2942,-2520.043 912.9178,-2530.0507 873.3445,-2531.6535"/>
<polygon fill="none" stroke="#000000" points="873.2478,-2528.1547 863.3319,-2531.8863 873.4106,-2535.1528 873.2478,-2528.1547"/>
</g>
<!-- \\Anax\\View\\ViewRenderFileInterface -->
<g id="node55" class="node">
<title>\\Anax\\View\\ViewRenderFileInterface</title>
<polygon fill="none" stroke="#000000" points="846.2001,-1542 674.2001,-1542 674.2001,-1506 846.2001,-1506 846.2001,-1542"/>
<text text-anchor="middle" x="760.2001" y="-1521.2" font-family="Courier,monospace" font-size="11.00" fill="#000000">ViewRenderFileInterface</text>
</g>
<!-- \\Anax\\View\\ViewRenderFile&#45;&gt;\\Anax\\View\\ViewRenderFileInterface -->
<g id="edge20" class="edge">
<title>\\Anax\\View\\ViewRenderFile&#45;&gt;\\Anax\\View\\ViewRenderFileInterface</title>
<path fill="none" stroke="#000000" stroke-dasharray="1,5" d="M1104.2636,-1524C1040.3275,-1524 934.2005,-1524 856.6903,-1524"/>
<polygon fill="none" stroke="#000000" points="856.4297,-1520.5001 846.4296,-1524 856.4296,-1527.5001 856.4297,-1520.5001"/>
</g>
<!-- \\Anax\\View\\ViewCollection -->
<g id="node53" class="node">
<title>\\Anax\\View\\ViewCollection</title>
<polygon fill="none" stroke="#000000" points="1215.3305,-1596 1104.3305,-1596 1104.3305,-1560 1215.3305,-1560 1215.3305,-1596"/>
<text text-anchor="middle" x="1159.8305" y="-1575.2" font-family="Courier,monospace" font-size="11.00" fill="#000000">ViewCollection</text>
</g>
<!-- \\Anax\\View\\ViewCollection&#45;&gt;\\Anax\\Commons\\ContainerInjectableInterface -->
<g id="edge24" class="edge">
<title>\\Anax\\View\\ViewCollection&#45;&gt;\\Anax\\Commons\\ContainerInjectableInterface</title>
<path fill="none" stroke="#000000" stroke-dasharray="1,5" d="M1104.1513,-1577.8249C1082.7911,-1580.7851 1060.1342,-1588.1952 1045.8305,-1605 917.8811,-1755.3212 1117.9449,-2348.0302 981.8305,-2491 954.2343,-2519.986 912.8463,-2529.9828 873.2805,-2531.5927"/>
<polygon fill="none" stroke="#000000" points="873.1853,-2528.0938 863.2702,-2531.8277 873.3497,-2535.0919 873.1853,-2528.0938"/>
</g>
<!-- \\Anax\\View\\Exception -->
<g id="node54" class="node">
<title>\\Anax\\View\\Exception</title>
<polygon fill="none" stroke="#000000" points="1198.3305,-1488 1121.3305,-1488 1121.3305,-1452 1198.3305,-1452 1198.3305,-1488"/>
<text text-anchor="middle" x="1159.8305" y="-1467.2" font-family="Courier,monospace" font-size="11.00" fill="#000000">Exception</text>
</g>
<!-- \\Anax\\View\\Exception&#45;&gt;\\Exception -->
<g id="edge47" class="edge">
<title>\\Anax\\View\\Exception&#45;&gt;\\Exception</title>
<path fill="none" stroke="#000000" d="M1121.2844,-1461.1052C1095.3168,-1452.9438 1062.8148,-1438.0387 1045.8305,-1412 906.4825,-1198.3659 1154.117,-454.0817 981.8305,-266 942.5229,-223.0888 873.4089,-219.4188 822.7841,-223.7711"/>
<polygon fill="none" stroke="#000000" points="822.2086,-220.3108 812.6,-224.7746 822.8951,-227.277 822.2086,-220.3108"/>
</g>
<!-- \\Anax\\Database\\Exception\\Exception -->
<g id="node56" class="node">
<title>\\Anax\\Database\\Exception\\Exception</title>
<polygon fill="none" stroke="#000000" points="1198.3305,-948 1121.3305,-948 1121.3305,-912 1198.3305,-912 1198.3305,-948"/>
<text text-anchor="middle" x="1159.8305" y="-927.2" font-family="Courier,monospace" font-size="11.00" fill="#000000">Exception</text>
</g>
<!-- \\Anax\\Database\\Exception\\Exception&#45;&gt;\\Exception -->
<g id="edge31" class="edge">
<title>\\Anax\\Database\\Exception\\Exception&#45;&gt;\\Exception</title>
<path fill="none" stroke="#000000" d="M1121.1742,-933.3816C1096.0146,-933.299 1064.5138,-928.4716 1045.8305,-908 949.1808,-802.0996 1080.9546,-369.5879 981.8305,-266 941.8489,-224.218 873.5011,-220.1876 823.2513,-224.1438"/>
<polygon fill="none" stroke="#000000" points="822.7795,-220.6722 813.1385,-225.0654 823.4149,-227.6433 822.7795,-220.6722"/>
</g>
<!-- \\Anax\\Database\\DatabaseDebug -->
<g id="node57" class="node">
<title>\\Anax\\Database\\DatabaseDebug</title>
<polygon fill="none" stroke="#000000" points="1211.8305,-894 1107.8305,-894 1107.8305,-858 1211.8305,-858 1211.8305,-894"/>
<text text-anchor="middle" x="1159.8305" y="-873.2" font-family="Courier,monospace" font-size="11.00" fill="#000000">DatabaseDebug</text>
</g>
<!-- \\Anax\\Database\\Database -->
<g id="node77" class="node">
<title>\\Anax\\Database\\Database</title>
<ellipse fill="none" stroke="#000000" cx="760.2001" cy="-180" rx="129.9769" ry="18"/>
<text text-anchor="middle" x="760.2001" y="-176.3" font-family="Times,serif" font-size="14.00" fill="#c0c0c0">\Anax\Database\Database</text>
</g>
<!-- \\Anax\\Database\\DatabaseDebug&#45;&gt;\\Anax\\Database\\Database -->
<g id="edge44" class="edge">
<title>\\Anax\\Database\\DatabaseDebug&#45;&gt;\\Anax\\Database\\Database</title>
<path fill="none" stroke="#000000" d="M1107.7913,-874.9702C1085.4552,-871.7028 1061.0452,-863.8218 1045.8305,-846 953.1702,-737.4626 1081.6563,-308.9857 981.8305,-207 950.4501,-174.9408 902.1454,-166.3504 858.6325,-166.5613"/>
<polygon fill="none" stroke="#000000" points="858.4893,-163.0634 848.5618,-166.7639 858.6302,-170.062 858.4893,-163.0634"/>
</g>
<!-- \\Anax\\Navigation\\Navbar -->
<g id="node58" class="node">
<title>\\Anax\\Navigation\\Navbar</title>
<polygon fill="none" stroke="#000000" points="1188.3305,-814 1131.3305,-814 1131.3305,-778 1188.3305,-778 1188.3305,-814"/>
<text text-anchor="middle" x="1159.8305" y="-793.2" font-family="Courier,monospace" font-size="11.00" fill="#000000">Navbar</text>
</g>
<!-- \\Anax\\Cache\\InvalidArgumentException -->
<g id="node59" class="node">
<title>\\Anax\\Cache\\InvalidArgumentException</title>
<polygon fill="none" stroke="#000000" points="1249.3305,-574 1070.3305,-574 1070.3305,-538 1249.3305,-538 1249.3305,-574"/>
<text text-anchor="middle" x="1159.8305" y="-553.2" font-family="Courier,monospace" font-size="11.00" fill="#000000">InvalidArgumentException</text>
</g>
<!-- \\Anax\\Cache\\InvalidArgumentException&#45;&gt;\\Exception -->
<g id="edge38" class="edge">
<title>\\Anax\\Cache\\InvalidArgumentException&#45;&gt;\\Exception</title>
<path fill="none" stroke="#000000" d="M1070.0648,-545.1215C1061.0906,-541.1326 1052.755,-535.8821 1045.8305,-529 960.5043,-444.197 1070.8512,-346.916 981.8305,-266 939.9323,-227.9164 873.9743,-222.8079 824.8929,-225.481"/>
<polygon fill="none" stroke="#000000" points="824.4356,-222.0036 814.6903,-226.1604 824.9008,-228.9881 824.4356,-222.0036"/>
</g>
<!-- \\Psr\\SimpleCache\\InvalidArgumentException -->
<g id="node76" class="node">
<title>\\Psr\\SimpleCache\\InvalidArgumentException</title>
<ellipse fill="none" stroke="#000000" cx="760.2001" cy="-126" rx="221.7607" ry="18"/>
<text text-anchor="middle" x="760.2001" y="-122.3" font-family="Times,serif" font-size="14.00" fill="#c0c0c0">\Psr\SimpleCache\InvalidArgumentException</text>
</g>
<!-- \\Anax\\Cache\\InvalidArgumentException&#45;&gt;\\Psr\\SimpleCache\\InvalidArgumentException -->
<g id="edge39" class="edge">
<title>\\Anax\\Cache\\InvalidArgumentException&#45;&gt;\\Psr\\SimpleCache\\InvalidArgumentException</title>
<path fill="none" stroke="#000000" stroke-dasharray="1,5" d="M1070.135,-545.8466C1061.0334,-541.7444 1052.6487,-536.2689 1045.8305,-529 929.8594,-405.3637 1104.5005,-269.9926 981.8305,-153 976.6477,-148.0571 971.0586,-143.6871 965.1488,-139.833"/>
<polygon fill="none" stroke="#000000" points="966.6539,-136.6559 956.2707,-134.5488 963.0737,-142.671 966.6539,-136.6559"/>
</g>
<!-- \\Anax\\Cache\\FileCache -->
<g id="node60" class="node">
<title>\\Anax\\Cache\\FileCache</title>
<polygon fill="none" stroke="#000000" points="1198.3305,-466 1121.3305,-466 1121.3305,-430 1198.3305,-430 1198.3305,-466"/>
<text text-anchor="middle" x="1159.8305" y="-445.2" font-family="Courier,monospace" font-size="11.00" fill="#000000">FileCache</text>
</g>
<!-- \\Psr\\SimpleCache\\CacheInterface -->
<g id="node78" class="node">
<title>\\Psr\\SimpleCache\\CacheInterface</title>
<ellipse fill="none" stroke="#000000" cx="760.2001" cy="-18" rx="168.1703" ry="18"/>
<text text-anchor="middle" x="760.2001" y="-14.3" font-family="Times,serif" font-size="14.00" fill="#c0c0c0">\Psr\SimpleCache\CacheInterface</text>
</g>
<!-- \\Anax\\Cache\\FileCache&#45;&gt;\\Psr\\SimpleCache\\CacheInterface -->
<g id="edge46" class="edge">
<title>\\Anax\\Cache\\FileCache&#45;&gt;\\Psr\\SimpleCache\\CacheInterface</title>
<path fill="none" stroke="#000000" stroke-dasharray="1,5" d="M1157.9783,-429.6737C1150.3483,-364.6854 1115.151,-143.8599 981.8305,-45 968.616,-35.2012 953.6915,-27.9093 937.9872,-22.5624"/>
<polygon fill="none" stroke="#000000" points="938.7053,-19.12 928.1166,-19.4796 936.6184,-25.8017 938.7053,-19.12"/>
</g>
<!-- \\Anax\\Cache\\Exception -->
<g id="node61" class="node">
<title>\\Anax\\Cache\\Exception</title>
<polygon fill="none" stroke="#000000" points="1198.3305,-520 1121.3305,-520 1121.3305,-484 1198.3305,-484 1198.3305,-520"/>
<text text-anchor="middle" x="1159.8305" y="-499.2" font-family="Courier,monospace" font-size="11.00" fill="#000000">Exception</text>
</g>
<!-- \\Anax\\Cache\\Exception&#45;&gt;\\Exception -->
<g id="edge48" class="edge">
<title>\\Anax\\Cache\\Exception&#45;&gt;\\Exception</title>
<path fill="none" stroke="#000000" d="M1121.1991,-502.2132C1096.6967,-500.3079 1065.9372,-493.8481 1045.8305,-475 974.9551,-408.5612 1055.5964,-329.2141 981.8305,-266 939.2508,-229.5111 874.2938,-223.9819 825.6934,-226.1085"/>
<polygon fill="none" stroke="#000000" points="825.3752,-222.6207 815.5848,-226.6701 825.7636,-229.6099 825.3752,-222.6207"/>
</g>
<!-- \\Psr\\SimpleCache\\CacheException -->
<g id="node79" class="node">
<title>\\Psr\\SimpleCache\\CacheException</title>
<ellipse fill="none" stroke="#000000" cx="760.2001" cy="-72" rx="172.4698" ry="18"/>
<text text-anchor="middle" x="760.2001" y="-68.3" font-family="Times,serif" font-size="14.00" fill="#c0c0c0">\Psr\SimpleCache\CacheException</text>
</g>
<!-- \\Anax\\Cache\\Exception&#45;&gt;\\Psr\\SimpleCache\\CacheException -->
<g id="edge49" class="edge">
<title>\\Anax\\Cache\\Exception&#45;&gt;\\Psr\\SimpleCache\\CacheException</title>
<path fill="none" stroke="#000000" stroke-dasharray="1,5" d="M1121.1898,-503.0958C1096.202,-501.6269 1064.8937,-495.3232 1045.8305,-475 929.8594,-351.3637 1104.5005,-215.9926 981.8305,-99 969.9836,-87.7014 956.0134,-79.396 940.9429,-73.4037"/>
<polygon fill="none" stroke="#000000" points="942.0207,-70.0717 931.4264,-69.9654 939.6421,-76.6552 942.0207,-70.0717"/>
</g>
<!-- \\Anax\\StyleChooser\\StyleChooserController -->
<g id="node62" class="node">
<title>\\Anax\\StyleChooser\\StyleChooserController</title>
<polygon fill="none" stroke="#000000" points="1242.3305,-654 1077.3305,-654 1077.3305,-618 1242.3305,-618 1242.3305,-654"/>
<text text-anchor="middle" x="1159.8305" y="-633.2" font-family="Courier,monospace" font-size="11.00" fill="#000000">StyleChooserController</text>
</g>
<!-- \\Anax\\StyleChooser\\StyleChooserController&#45;&gt;\\Anax\\Commons\\ContainerInjectableInterface -->
<g id="edge43" class="edge">
<title>\\Anax\\StyleChooser\\StyleChooserController&#45;&gt;\\Anax\\Commons\\ContainerInjectableInterface</title>
<path fill="none" stroke="#000000" stroke-dasharray="1,5" d="M1086.0416,-654.1207C1070.3167,-661.4492 1055.5421,-671.696 1045.8305,-686 933.1051,-852.0304 1117.5185,-2343.1425 981.8305,-2491 954.6495,-2520.6187 913.1171,-2530.6704 873.3224,-2532.148"/>
<polygon fill="none" stroke="#000000" points="873.1817,-2528.65 863.2523,-2532.3457 873.3191,-2535.6487 873.1817,-2528.65"/>
</g>
<!-- \\Anax\\Page\\Page -->
<g id="node63" class="node">
<title>\\Anax\\Page\\Page</title>
<polygon fill="none" stroke="#000000" points="1186.8305,-734 1132.8305,-734 1132.8305,-698 1186.8305,-698 1186.8305,-734"/>
<text text-anchor="middle" x="1159.8305" y="-713.2" font-family="Courier,monospace" font-size="11.00" fill="#000000">Page</text>
</g>
<!-- \\Anax\\Page\\Page&#45;&gt;\\Anax\\Commons\\ContainerInjectableInterface -->
<g id="edge50" class="edge">
<title>\\Anax\\Page\\Page&#45;&gt;\\Anax\\Commons\\ContainerInjectableInterface</title>
<path fill="none" stroke="#000000" stroke-dasharray="1,5" d="M1132.7207,-719.6118C1105.6923,-724.794 1065.4595,-737.1399 1045.8305,-766 937.9646,-924.5927 1111.6284,-2349.7938 981.8305,-2491 954.6252,-2520.5964 913.0882,-2530.6439 873.2966,-2532.1243"/>
<polygon fill="none" stroke="#000000" points="873.1565,-2528.6263 863.2274,-2532.3228 873.2945,-2535.625 873.1565,-2528.6263"/>
</g>
<!-- \\Elpr\\Product\\ProductController -->
<g id="node64" class="node">
<title>\\Elpr\\Product\\ProductController</title>
<polygon fill="none" stroke="#000000" points="1225.3305,-3864 1094.3305,-3864 1094.3305,-3828 1225.3305,-3828 1225.3305,-3864"/>
<text text-anchor="middle" x="1159.8305" y="-3843.2" font-family="Courier,monospace" font-size="11.00" fill="#000000">ProductController</text>
</g>
<!-- \\Elpr\\Product\\ProductController&#45;&gt;\\Anax\\Commons\\AppInjectableInterface -->
<g id="edge1" class="edge">
<title>\\Elpr\\Product\\ProductController&#45;&gt;\\Anax\\Commons\\AppInjectableInterface</title>
<path fill="none" stroke="#000000" stroke-dasharray="1,5" d="M1094.2323,-3844.5982C1075.9705,-3840.8476 1057.8632,-3833.3302 1045.8305,-3819 889.9445,-3633.3502 1099.1317,-2942.1478 981.8305,-2730 945.3767,-2664.0708 868.371,-2618.9803 815.4601,-2594.343"/>
<polygon fill="none" stroke="#000000" points="816.7553,-2591.087 806.2041,-2590.1263 813.8533,-2597.4571 816.7553,-2591.087"/>
</g>
<!-- \\Elpr\\Product\\Product -->
<g id="node65" class="node">
<title>\\Elpr\\Product\\Product</title>
<polygon fill="none" stroke="#000000" points="1191.8305,-3810 1127.8305,-3810 1127.8305,-3774 1191.8305,-3774 1191.8305,-3810"/>
<text text-anchor="middle" x="1159.8305" y="-3789.2" font-family="Courier,monospace" font-size="11.00" fill="#000000">Product</text>
</g>
<!-- \\Elpr\\Base\\BaseController -->
<g id="node66" class="node">
<title>\\Elpr\\Base\\BaseController</title>
<polygon fill="none" stroke="#000000" points="1215.3305,-3730 1104.3305,-3730 1104.3305,-3694 1215.3305,-3694 1215.3305,-3730"/>
<text text-anchor="middle" x="1159.8305" y="-3709.2" font-family="Courier,monospace" font-size="11.00" fill="#000000">BaseController</text>
</g>
<!-- \\Elpr\\Base\\BaseController&#45;&gt;\\Anax\\Commons\\AppInjectableInterface -->
<g id="edge9" class="edge">
<title>\\Elpr\\Base\\BaseController&#45;&gt;\\Anax\\Commons\\AppInjectableInterface</title>
<path fill="none" stroke="#000000" stroke-dasharray="1,5" d="M1104.2832,-3710.6988C1082.8106,-3707.1921 1060.0351,-3699.2002 1045.8305,-3682 910.8146,-3518.5107 1085.2098,-2915.1235 981.8305,-2730 945.0993,-2664.2249 868.1617,-2619.0965 815.3416,-2594.4088"/>
<polygon fill="none" stroke="#000000" points="816.652,-2591.1594 806.1022,-2590.1829 813.7404,-2597.5252 816.652,-2591.1594"/>
</g>
<!-- \\Elpr\\Content\\Content -->
<g id="node67" class="node">
<title>\\Elpr\\Content\\Content</title>
<polygon fill="none" stroke="#000000" points="1191.8305,-4132 1127.8305,-4132 1127.8305,-4096 1191.8305,-4096 1191.8305,-4132"/>
<text text-anchor="middle" x="1159.8305" y="-4111.2" font-family="Courier,monospace" font-size="11.00" fill="#000000">Content</text>
</g>
<!-- \\Elpr\\Content\\ContentController -->
<g id="node68" class="node">
<title>\\Elpr\\Content\\ContentController</title>
<polygon fill="none" stroke="#000000" points="1225.3305,-4078 1094.3305,-4078 1094.3305,-4042 1225.3305,-4042 1225.3305,-4078"/>
<text text-anchor="middle" x="1159.8305" y="-4057.2" font-family="Courier,monospace" font-size="11.00" fill="#000000">ContentController</text>
</g>
<!-- \\Elpr\\Content\\ContentController&#45;&gt;\\Anax\\Commons\\AppInjectableInterface -->
<g id="edge35" class="edge">
<title>\\Elpr\\Content\\ContentController&#45;&gt;\\Anax\\Commons\\AppInjectableInterface</title>
<path fill="none" stroke="#000000" stroke-dasharray="1,5" d="M1094.3158,-4056.9132C1075.9439,-4052.6989 1057.7535,-4044.704 1045.8305,-4030 954.7451,-3917.6691 1051.2064,-2856.8927 981.8305,-2730 945.6906,-2663.8981 868.6079,-2618.85 815.5941,-2594.2693"/>
<polygon fill="none" stroke="#000000" points="816.8722,-2591.0058 806.3194,-2590.0629 813.9809,-2597.3808 816.8722,-2591.0058"/>
</g>
<!-- \\Elpr\\Login\\Login -->
<g id="node69" class="node">
<title>\\Elpr\\Login\\Login</title>
<polygon fill="none" stroke="#000000" points="1186.8305,-3998 1132.8305,-3998 1132.8305,-3962 1186.8305,-3962 1186.8305,-3998"/>
<text text-anchor="middle" x="1159.8305" y="-3977.2" font-family="Courier,monospace" font-size="11.00" fill="#000000">Login</text>
</g>
<!-- \\Elpr\\Login\\LoginController -->
<g id="node70" class="node">
<title>\\Elpr\\Login\\LoginController</title>
<polygon fill="none" stroke="#000000" points="1218.8305,-3944 1100.8305,-3944 1100.8305,-3908 1218.8305,-3908 1218.8305,-3944"/>
<text text-anchor="middle" x="1159.8305" y="-3923.2" font-family="Courier,monospace" font-size="11.00" fill="#000000">LoginController</text>
</g>
<!-- \\Elpr\\Login\\LoginController&#45;&gt;\\Anax\\Commons\\AppInjectableInterface -->
<g id="edge29" class="edge">
<title>\\Elpr\\Login\\LoginController&#45;&gt;\\Anax\\Commons\\AppInjectableInterface</title>
<path fill="none" stroke="#000000" stroke-dasharray="1,5" d="M1100.6198,-3924.1663C1080.2095,-3920.3826 1059.153,-3912.3356 1045.8305,-3896 881.8213,-3694.8984 1106.9586,-2957.3407 981.8305,-2730 945.5043,-2664.0004 868.4673,-2618.9272 815.5145,-2594.3129"/>
<polygon fill="none" stroke="#000000" points="816.8028,-2591.0539 806.2509,-2590.1005 813.9051,-2597.426 816.8028,-2591.0539"/>
</g>
<!-- \\Elpr\\MyTextFilter\\MyTextFilter -->
<g id="node71" class="node">
<title>\\Elpr\\MyTextFilter\\MyTextFilter</title>
<polygon fill="none" stroke="#000000" points="1208.8305,-3650 1110.8305,-3650 1110.8305,-3614 1208.8305,-3614 1208.8305,-3650"/>
<text text-anchor="middle" x="1159.8305" y="-3629.2" font-family="Courier,monospace" font-size="11.00" fill="#000000">MyTextFilter</text>
</g>
</g>
</svg>
